<svg width="158" height="169" viewBox="0 0 158 169" fill="none" xmlns="http://www.w3.org/2000/svg">
<g clip-path="url(#clip0_5_9)">
<path d="M22.4121 85.9404C21.9805 84.7451 22.1465 83.583 22.9102 82.4541C23.6738 81.3252 24.6865 80.6113 25.9482 80.3125C26.5127 80.1797 27.0605 80.1465 27.5918 80.2129C28.5879 80.3457 29.4346 80.7441 30.1318 81.4082C30.8623 82.0723 31.3438 82.8359 31.5762 83.6992C31.709 84.2637 31.8418 84.8281 31.9746 85.3926C32.9707 89.0781 34.0664 92.166 35.2617 94.6562C36.457 97.1133 37.9678 98.9727 39.7939 100.234C41.6533 101.463 44.0938 102.077 47.1152 102.077H47.165C48.46 102.077 49.5557 102.542 50.4521 103.472C51.3818 104.368 51.8467 105.464 51.8467 106.759C51.8467 108.054 51.3818 109.149 50.4521 110.046C49.5557 110.976 48.46 111.44 47.165 111.44H47.1152C44.3926 111.44 41.9355 111.025 39.7441 110.195C37.5859 109.365 35.6436 108.203 33.917 106.709C33.1533 114.777 30.5635 121.401 26.1475 126.581C21.7646 131.794 16.2197 135.529 9.5127 137.787C8.11816 138.219 6.85645 138.103 5.72754 137.438C4.59863 136.774 3.86816 135.878 3.53613 134.749C3.10449 133.288 3.2207 132.01 3.88477 130.914C4.58203 129.852 5.44531 129.154 6.47461 128.822C12.1523 126.93 16.6182 123.792 19.8721 119.409C23.1592 115.026 24.8027 109.232 24.8027 102.027C24.8027 97.3125 24.0557 92.1162 22.5615 86.4385C22.5283 86.2725 22.4785 86.1064 22.4121 85.9404ZM20.5195 58.9961C20.5195 57.668 21.001 56.4893 21.9639 55.46C22.96 54.3975 24.2383 53.8662 25.7988 53.8662C26.8945 53.8662 27.8242 54.0986 28.5879 54.5635C29.3516 54.9951 29.9492 55.5596 30.3809 56.2568C30.9453 57.0869 31.2275 58.0166 31.2275 59.0459C31.2275 60.1416 30.8623 61.3369 30.1318 62.6318C29.4014 63.8936 27.957 64.5244 25.7988 64.5244C24.3711 64.5244 23.2754 64.209 22.5117 63.5781C21.748 62.9473 21.2168 62.2168 20.918 61.3867C20.6523 60.6895 20.5195 59.8926 20.5195 58.9961ZM42.5332 106.759C42.5332 105.464 42.998 104.368 43.9277 103.472C44.8242 102.542 45.9199 102.077 47.2148 102.077C51.8965 102.077 55.2832 101.347 57.375 99.8857C59.4668 98.3916 60.5127 95.6025 60.5127 91.5186C60.5127 90.124 60.3965 88.2812 60.1641 85.9902C59.9648 83.6992 59.6328 81.4746 59.168 79.3164C59.002 78.0547 59.3008 76.9092 60.0645 75.8799C60.8613 74.8174 61.8906 74.1865 63.1523 73.9873C64.4141 73.8213 65.5596 74.1367 66.5889 74.9336C67.6182 75.6973 68.249 76.71 68.4814 77.9717C69.0459 80.4287 69.4443 82.8857 69.6768 85.3428C69.9092 87.7666 70.0254 89.8418 70.0254 91.5684C70.0254 98.1758 68.083 103.14 64.1982 106.46C60.3467 109.78 54.6855 111.44 47.2148 111.44C45.9199 111.44 44.8242 110.976 43.9277 110.046C42.998 109.149 42.5332 108.054 42.5332 106.759ZM51.9961 58.0498C51.9961 56.7217 52.4775 55.543 53.4404 54.5137C54.4365 53.4512 55.7148 52.9199 57.2754 52.9199C58.3711 52.9199 59.3008 53.1523 60.0645 53.6172C60.8281 54.0488 61.4258 54.6133 61.8574 55.3105C62.4219 56.1406 62.7041 57.0703 62.7041 58.0996C62.7041 59.1953 62.3389 60.3906 61.6084 61.6855C60.8779 62.9473 59.4336 63.5781 57.2754 63.5781C55.8477 63.5781 54.752 63.2627 53.9883 62.6318C53.2246 62.001 52.6934 61.2705 52.3945 60.4404C52.1289 59.7432 51.9961 58.9463 51.9961 58.0498ZM99.1611 111.44C93.417 111.44 88.8848 110.112 85.5645 107.456C82.2441 104.767 80.584 100.666 80.584 95.1543C80.584 91.4688 81.3477 87.9824 82.875 84.6953C84.4023 81.4082 86.4941 78.752 89.1504 76.7266C91.8066 74.668 94.7949 73.6387 98.1152 73.6387C101.037 73.6387 103.66 74.3857 105.984 75.8799C108.342 77.374 110.334 79.3828 111.961 81.9062C113.621 84.4297 114.883 87.2852 115.746 90.4727C116.643 93.627 117.091 96.8809 117.091 100.234C117.091 100.865 117.074 101.479 117.041 102.077H122.47C123.765 102.077 124.86 102.542 125.757 103.472C126.687 104.368 127.151 105.464 127.151 106.759C127.151 108.054 126.687 109.149 125.757 110.046C124.86 110.976 123.765 111.44 122.47 111.44H115.348C113.854 115.989 111.562 120.057 108.475 123.643C105.42 127.229 101.801 130.233 97.6172 132.657C93.4336 135.081 88.9512 136.808 84.1699 137.837C82.9414 138.069 81.7793 137.804 80.6836 137.04C79.5879 136.31 78.9238 135.33 78.6914 134.102C78.459 132.84 78.708 131.678 79.4385 130.615C80.2021 129.586 81.1982 128.905 82.4268 128.573C88.0713 127.079 92.8691 124.854 96.8203 121.899C100.805 118.978 103.743 115.491 105.636 111.44H99.1611ZM99.1113 102.077H107.977C108.01 101.579 108.026 101.064 108.026 100.533C108.026 97.9766 107.645 95.3369 106.881 92.6143C106.117 89.8584 104.988 87.5342 103.494 85.6416C102 83.7158 100.141 82.7529 97.916 82.7529C96.2559 82.7529 94.7783 83.334 93.4834 84.4961C92.1885 85.625 91.1758 87.0859 90.4453 88.8789C89.748 90.6387 89.3994 92.4648 89.3994 94.3574C89.3994 97.2461 90.2793 99.2549 92.0391 100.384C93.7988 101.513 96.1562 102.077 99.1113 102.077ZM117.788 106.759C117.788 105.464 118.253 104.368 119.183 103.472C120.112 102.542 121.225 102.077 122.52 102.077H129.99C131.285 102.077 132.397 102.542 133.327 103.472C134.257 104.368 134.722 105.464 134.722 106.759C134.722 108.054 134.257 109.149 133.327 110.046C132.397 110.976 131.285 111.44 129.99 111.44H122.52C121.225 111.44 120.112 110.976 119.183 110.046C118.253 109.149 117.788 108.054 117.788 106.759ZM125.309 106.759C125.309 105.464 125.773 104.368 126.703 103.472C127.6 102.542 128.695 102.077 129.99 102.077C134.672 102.077 138.059 101.347 140.15 99.8857C142.242 98.3916 143.288 95.6025 143.288 91.5186C143.288 90.124 143.172 88.2812 142.939 85.9902C142.74 83.6992 142.408 81.4746 141.943 79.3164C141.777 78.0547 142.076 76.9092 142.84 75.8799C143.637 74.8174 144.666 74.1865 145.928 73.9873C147.189 73.8213 148.335 74.1367 149.364 74.9336C150.394 75.6973 151.024 76.71 151.257 77.9717C151.821 80.4287 152.22 82.8857 152.452 85.3428C152.685 87.7666 152.801 89.8418 152.801 91.5684C152.801 98.1758 150.858 103.14 146.974 106.46C143.122 109.78 137.461 111.44 129.99 111.44C128.695 111.44 127.6 110.976 126.703 110.046C125.773 109.149 125.309 108.054 125.309 106.759ZM131.335 144.76C130.737 142.834 131.551 141.323 133.775 140.228C136.299 139.165 138.391 137.854 140.051 136.293C141.744 134.766 142.591 133.438 142.591 132.309C142.591 130.914 141.296 130.217 138.706 130.217C137.444 130.217 135.967 130.416 134.273 130.814C132.58 131.213 130.937 131.694 129.343 132.259C127.749 132.856 126.454 133.404 125.458 133.902C123.233 134.865 121.557 134.6 120.428 133.105C119.83 132.309 119.598 131.412 119.73 130.416C119.863 129.42 120.345 128.623 121.175 128.025C122.304 127.195 123.831 126.415 125.757 125.685C127.683 124.954 129.774 124.356 132.032 123.892C134.323 123.46 136.548 123.244 138.706 123.244C141.661 123.244 144.201 124.008 146.326 125.535C148.451 127.062 149.514 129.32 149.514 132.309C149.514 134.168 148.833 136.11 147.472 138.136C146.144 140.194 144.434 142.037 142.342 143.664C140.25 145.324 138.075 146.52 135.817 147.25C134.888 147.516 133.975 147.399 133.078 146.901C132.182 146.403 131.601 145.689 131.335 144.76Z" fill="#408CC9"/>
</g>
<defs>
<clipPath id="clip0_5_9">
<rect width="158" height="169" fill="white"/>
</clipPath>
</defs>
</svg>
