<svg width="18" height="18" viewBox="0 0 18 18" fill="none" xmlns="http://www.w3.org/2000/svg">
<path d="M3.46937 7.89917C3.42494 7.77612 3.44203 7.65649 3.52064 7.54028C3.59925 7.42407 3.7035 7.35059 3.83338 7.31982C3.89149 7.30615 3.94789 7.30273 4.00257 7.30957C4.10511 7.32324 4.19227 7.36426 4.26405 7.43262C4.33924 7.50098 4.3888 7.57959 4.41273 7.66846C4.4264 7.72656 4.44007 7.78467 4.45375 7.84277C4.55629 8.22217 4.66908 8.54004 4.79213 8.79639C4.91517 9.04932 5.07069 9.24072 5.25868 9.37061C5.45008 9.49707 5.70131 9.5603 6.01234 9.5603H6.01747C6.15077 9.5603 6.26356 9.60815 6.35585 9.70386C6.45155 9.79614 6.4994 9.90894 6.4994 10.0422C6.4994 10.1755 6.45155 10.2883 6.35585 10.3806C6.26356 10.4763 6.15077 10.5242 6.01747 10.5242H6.01234C5.73207 10.5242 5.47914 10.4814 5.25355 10.396C5.03138 10.3105 4.83143 10.1909 4.6537 10.0371C4.57508 10.8677 4.30848 11.5496 3.85389 12.0828C3.40272 12.6194 2.83192 13.0039 2.14149 13.2363C1.99794 13.2808 1.86805 13.2688 1.75184 13.2004C1.63563 13.1321 1.56044 13.0398 1.52626 12.9236C1.48182 12.7732 1.49379 12.6416 1.56214 12.5288C1.63392 12.4194 1.72279 12.3477 1.82875 12.3135C2.41322 12.1187 2.87294 11.7957 3.2079 11.3445C3.54628 10.8933 3.71547 10.2969 3.71547 9.55518C3.71547 9.06982 3.63856 8.53491 3.48475 7.95044C3.48133 7.93335 3.47621 7.91626 3.46937 7.89917ZM3.27455 5.12549C3.27455 4.98877 3.32411 4.86743 3.42323 4.76147C3.52577 4.6521 3.65736 4.59741 3.818 4.59741C3.9308 4.59741 4.0265 4.62134 4.10511 4.66919C4.18373 4.71362 4.24525 4.77173 4.28968 4.84351C4.34779 4.92896 4.37684 5.02466 4.37684 5.13062C4.37684 5.24341 4.33924 5.36646 4.26405 5.49976C4.18885 5.62964 4.04017 5.69458 3.818 5.69458C3.67103 5.69458 3.55824 5.66211 3.47963 5.59717C3.40101 5.53223 3.34632 5.45703 3.31556 5.37158C3.28822 5.2998 3.27455 5.21777 3.27455 5.12549Z" fill="#111928"/>
<path d="M5.54066 10.0422C5.54066 9.90894 5.58851 9.79614 5.68422 9.70386C5.7765 9.60815 5.88929 9.5603 6.02259 9.5603C6.50453 9.5603 6.85316 9.48511 7.06849 9.33472C7.28382 9.18091 7.39149 8.8938 7.39149 8.47339C7.39149 8.32983 7.37953 8.14014 7.3556 7.9043C7.33509 7.66846 7.30091 7.43945 7.25306 7.21729C7.23597 7.0874 7.26673 6.96948 7.34535 6.86353C7.42738 6.75415 7.53334 6.68921 7.66322 6.6687C7.7931 6.65161 7.91102 6.68408 8.01698 6.76611C8.12294 6.84473 8.18788 6.94897 8.2118 7.07886C8.26991 7.33179 8.31092 7.58472 8.33485 7.83765C8.35878 8.08716 8.37074 8.30078 8.37074 8.47852C8.37074 9.15869 8.17079 9.66968 7.77089 10.0115C7.3744 10.3533 6.79164 10.5242 6.02259 10.5242C5.88929 10.5242 5.7765 10.4763 5.68422 10.3806C5.58851 10.2883 5.54066 10.1755 5.54066 10.0422ZM6.51478 5.02808C6.51478 4.89136 6.56434 4.77002 6.66346 4.66406C6.766 4.55469 6.89759 4.5 7.05824 4.5C7.17103 4.5 7.26673 4.52393 7.34535 4.57178C7.42396 4.61621 7.48548 4.67432 7.52992 4.74609C7.58802 4.83154 7.61708 4.92725 7.61708 5.0332C7.61708 5.146 7.57948 5.26904 7.50428 5.40234C7.42909 5.53223 7.28041 5.59717 7.05824 5.59717C6.91127 5.59717 6.79847 5.5647 6.71986 5.49976C6.64125 5.43481 6.58656 5.35962 6.5558 5.27417C6.52845 5.20239 6.51478 5.12036 6.51478 5.02808Z" fill="#111928"/>
<path d="M11.37 10.5242C10.7787 10.5242 10.3121 10.3875 9.97035 10.114C9.62855 9.83716 9.45765 9.41504 9.45765 8.84766C9.45765 8.46826 9.53627 8.10938 9.69349 7.771C9.85072 7.43262 10.0661 7.15918 10.3395 6.95068C10.6129 6.73877 10.9205 6.63281 11.2623 6.63281C11.5631 6.63281 11.8331 6.70972 12.0724 6.86353C12.3151 7.01733 12.5202 7.22412 12.6876 7.48389C12.8585 7.74365 12.9884 8.0376 13.0773 8.36572C13.1696 8.69043 13.2157 9.02539 13.2157 9.37061C13.2157 9.43555 13.214 9.49878 13.2106 9.5603H13.7694C13.9027 9.5603 14.0155 9.60815 14.1078 9.70386C14.2035 9.79614 14.2514 9.90894 14.2514 10.0422C14.2514 10.1755 14.2035 10.2883 14.1078 10.3806C14.0155 10.4763 13.9027 10.5242 13.7694 10.5242H13.0363C12.8825 10.9924 12.6466 11.4111 12.3287 11.7803C12.0143 12.1494 11.6417 12.4587 11.2111 12.7083C10.7804 12.9578 10.319 13.1355 9.82679 13.2415C9.70033 13.2654 9.5807 13.238 9.46791 13.1594C9.35511 13.0842 9.28675 12.9834 9.26283 12.8569C9.2389 12.7271 9.26454 12.6074 9.33973 12.498C9.41835 12.3921 9.52089 12.322 9.64735 12.2878C10.2284 12.134 10.7223 11.905 11.129 11.6008C11.5392 11.3 11.8417 10.9412 12.0365 10.5242H11.37ZM11.3649 9.5603H12.2775C12.2809 9.50903 12.2826 9.45606 12.2826 9.40137C12.2826 9.13818 12.2433 8.86646 12.1647 8.58618C12.0861 8.30249 11.9699 8.06323 11.8161 7.86841C11.6622 7.67017 11.4708 7.57105 11.2418 7.57105C11.0709 7.57105 10.9188 7.63086 10.7855 7.75049C10.6522 7.8667 10.548 8.01709 10.4728 8.20166C10.401 8.38281 10.3651 8.5708 10.3651 8.76563C10.3651 9.06299 10.4557 9.26978 10.6369 9.38599C10.818 9.5022 11.0607 9.5603 11.3649 9.5603Z" fill="#111928"/>
<path d="M13.2875 10.0422C13.2875 9.90894 13.3353 9.79614 13.431 9.70386C13.5267 9.60815 13.6412 9.5603 13.7745 9.5603H14.5436C14.6769 9.5603 14.7914 9.60815 14.8871 9.70386C14.9828 9.79614 15.0307 9.90894 15.0307 10.0422C15.0307 10.1755 14.9828 10.2883 14.8871 10.3806C14.7914 10.4763 14.6769 10.5242 14.5436 10.5242H13.7745C13.6412 10.5242 13.5267 10.4763 13.431 10.3806C13.3353 10.2883 13.2875 10.1755 13.2875 10.0422Z" fill="#111928"/>
<path d="M14.0617 10.0422C14.0617 9.90894 14.1095 9.79614 14.2052 9.70386C14.2975 9.60815 14.4103 9.5603 14.5436 9.5603C15.0255 9.5603 15.3742 9.48511 15.5895 9.33472C15.8048 9.18091 15.9125 8.8938 15.9125 8.47339C15.9125 8.32983 15.9005 8.14014 15.8766 7.9043C15.8561 7.66846 15.8219 7.43945 15.7741 7.21729C15.757 7.0874 15.7877 6.96948 15.8663 6.86353C15.9484 6.75415 16.0543 6.68921 16.1842 6.6687C16.3141 6.65161 16.432 6.68408 16.538 6.76611C16.6439 6.84473 16.7089 6.94897 16.7328 7.07886C16.7909 7.33179 16.8319 7.58472 16.8558 7.83765C16.8798 8.08716 16.8917 8.30078 16.8917 8.47852C16.8917 9.15869 16.6918 9.66968 16.2919 10.0115C15.8954 10.3533 15.3126 10.5242 14.5436 10.5242C14.4103 10.5242 14.2975 10.4763 14.2052 10.3806C14.1095 10.2883 14.0617 10.1755 14.0617 10.0422ZM14.682 13.9541C14.6205 13.7559 14.7042 13.6003 14.9332 13.4875C15.193 13.3782 15.4083 13.2432 15.5792 13.0825C15.7536 12.9253 15.8407 12.7886 15.8407 12.6724C15.8407 12.5288 15.7074 12.457 15.4408 12.457C15.3109 12.457 15.1588 12.4775 14.9845 12.5186C14.8102 12.5596 14.641 12.6091 14.4769 12.6672C14.3129 12.7288 14.1796 12.7852 14.077 12.8364C13.848 12.9355 13.6754 12.9082 13.5592 12.7544C13.4977 12.6724 13.4738 12.5801 13.4874 12.4775C13.5011 12.375 13.5507 12.293 13.6361 12.2314C13.7523 12.146 13.9096 12.0657 14.1078 11.9905C14.306 11.9153 14.5214 11.8538 14.7538 11.8059C14.9896 11.7615 15.2186 11.7393 15.4408 11.7393C15.745 11.7393 16.0065 11.8179 16.2252 11.9751C16.444 12.1323 16.5534 12.3647 16.5534 12.6724C16.5534 12.8638 16.4833 13.0637 16.3432 13.2722C16.2064 13.4841 16.0304 13.6738 15.8151 13.8413C15.5997 14.0122 15.3759 14.1353 15.1434 14.2105C15.0477 14.2378 14.9537 14.2258 14.8615 14.1746C14.7692 14.1233 14.7094 14.0498 14.682 13.9541Z" fill="#111928"/>
</svg>
