<svg width="20" height="20" viewBox="0 0 20 20" fill="none" xmlns="http://www.w3.org/2000/svg">
<path d="M2.559 8.19447C2.50126 8.04263 2.52347 7.89502 2.62562 7.75162C2.72777 7.60822 2.86323 7.51754 3.032 7.47958C3.1075 7.46271 3.18078 7.45849 3.25184 7.46692C3.38508 7.48379 3.49833 7.53441 3.5916 7.61876C3.68931 7.70311 3.75371 7.80012 3.7848 7.90978C3.80256 7.98148 3.82033 8.05318 3.83809 8.12488C3.97133 8.59304 4.1179 8.98528 4.27778 9.30161C4.43767 9.61372 4.63975 9.84991 4.88402 10.0102C5.13273 10.1662 5.45917 10.2443 5.86333 10.2443H5.86999C6.0432 10.2443 6.18977 10.3033 6.30968 10.4214C6.43404 10.5353 6.49622 10.6745 6.49622 10.8389C6.49622 11.0034 6.43404 11.1426 6.30968 11.2565C6.18977 11.3746 6.0432 11.4336 5.86999 11.4336H5.86333C5.49914 11.4336 5.17049 11.3809 4.87736 11.2755C4.58867 11.17 4.32886 11.0224 4.09791 10.8326C3.99576 11.8575 3.64934 12.6989 3.05865 13.3569C2.47239 14.0191 1.7307 14.4936 0.833552 14.7804C0.647017 14.8352 0.478248 14.8204 0.327243 14.7361C0.176239 14.6517 0.0785303 14.5378 0.0341173 14.3944C-0.0236197 14.2089 -0.0080751 14.0465 0.080751 13.9073C0.174018 13.7723 0.289492 13.6838 0.427173 13.6416C1.18664 13.4012 1.78399 13.0026 2.21924 12.4459C2.65893 11.8891 2.87877 11.1532 2.87877 10.2379C2.87877 9.63902 2.77884 8.97896 2.57898 8.25774C2.57454 8.23665 2.56788 8.21556 2.559 8.19447ZM2.30584 4.77183C2.30584 4.60313 2.37024 4.4534 2.49904 4.32265C2.63228 4.18769 2.80327 4.1202 3.01201 4.1202C3.15857 4.1202 3.28293 4.14973 3.38508 4.20877C3.48723 4.2636 3.56717 4.3353 3.62491 4.42388C3.70041 4.52932 3.73816 4.64741 3.73816 4.77816C3.73816 4.91734 3.68931 5.06918 3.5916 5.23367C3.49389 5.39394 3.3007 5.47408 3.01201 5.47408C2.82104 5.47408 2.67447 5.43401 2.57232 5.35387C2.47017 5.27374 2.39911 5.18095 2.35914 5.07551C2.32361 4.98693 2.30584 4.88571 2.30584 4.77183Z" fill="currentColor"/>
<path d="M5.25043 10.8389C5.25043 10.6745 5.31261 10.5353 5.43696 10.4214C5.55688 10.3033 5.70344 10.2443 5.87665 10.2443C6.50288 10.2443 6.95589 10.1515 7.23569 9.96589C7.51549 9.7761 7.6554 9.42181 7.6554 8.90304C7.6554 8.7259 7.63985 8.49182 7.60876 8.2008C7.58211 7.90978 7.5377 7.62719 7.47552 7.35305C7.45332 7.19277 7.49329 7.04727 7.59544 6.91652C7.70203 6.78155 7.83971 6.70142 8.00848 6.67611C8.17725 6.65502 8.33047 6.69509 8.46815 6.79631C8.60583 6.89332 8.69022 7.02196 8.72131 7.18223C8.79681 7.49434 8.85011 7.80645 8.8812 8.11855C8.91228 8.42644 8.92783 8.69005 8.92783 8.90937C8.92783 9.74868 8.66801 10.3792 8.14838 10.801C7.63319 11.2228 6.87595 11.4336 5.87665 11.4336C5.70344 11.4336 5.55688 11.3746 5.43696 11.2565C5.31261 11.1426 5.25043 11.0034 5.25043 10.8389ZM6.5162 4.65163C6.5162 4.48292 6.5806 4.3332 6.7094 4.20245C6.84264 4.06748 7.01363 4 7.22237 4C7.36893 4 7.49329 4.02952 7.59544 4.08857C7.69759 4.1434 7.77753 4.2151 7.83527 4.30367C7.91077 4.40911 7.94852 4.52721 7.94852 4.65796C7.94852 4.79714 7.89967 4.94898 7.80196 5.11346C7.70425 5.27374 7.51105 5.35387 7.22237 5.35387C7.03139 5.35387 6.88483 5.3138 6.78268 5.23367C6.68053 5.15353 6.60947 5.06074 6.5695 4.9553C6.53397 4.86673 6.5162 4.76551 6.5162 4.65163Z" fill="currentColor"/>
<path d="M12.8251 11.4336C12.0567 11.4336 11.4505 11.2649 11.0064 10.9275C10.5622 10.5859 10.3402 10.065 10.3402 9.36487C10.3402 8.89671 10.4423 8.45386 10.6466 8.03631C10.8509 7.61876 11.1307 7.28135 11.486 7.02407C11.8413 6.76257 12.241 6.63182 12.6852 6.63182C13.076 6.63182 13.4269 6.72672 13.7378 6.91652C14.0531 7.10631 14.3196 7.36148 14.5372 7.68202C14.7593 8.00257 14.928 8.36529 15.0435 8.77018C15.1634 9.17086 15.2234 9.58419 15.2234 10.0102C15.2234 10.0903 15.2212 10.1683 15.2167 10.2443H15.9429C16.1161 10.2443 16.2626 10.3033 16.3826 10.4214C16.5069 10.5353 16.5691 10.6745 16.5691 10.8389C16.5691 11.0034 16.5069 11.1426 16.3826 11.2565C16.2626 11.3746 16.1161 11.4336 15.9429 11.4336H14.9902C14.7904 12.0115 14.4839 12.5281 14.0709 12.9836C13.6623 13.4391 13.1782 13.8208 12.6186 14.1287C12.0589 14.4366 11.4594 14.6559 10.8198 14.7867C10.6555 14.8162 10.5001 14.7825 10.3535 14.6855C10.2069 14.5927 10.1181 14.4683 10.087 14.3122C10.0559 14.1519 10.0892 14.0043 10.1869 13.8693C10.2891 13.7386 10.4223 13.6521 10.5867 13.61C11.3417 13.4202 11.9834 13.1376 12.512 12.7622C13.0449 12.3911 13.438 11.9482 13.6911 11.4336H12.8251ZM12.8184 10.2443H14.0042C14.0087 10.181 14.0109 10.1156 14.0109 10.0481C14.0109 9.72338 13.9598 9.38807 13.8577 9.04222C13.7555 8.69216 13.6045 8.39692 13.4047 8.15651C13.2048 7.91189 12.9561 7.78957 12.6585 7.78957C12.4365 7.78957 12.2388 7.86338 12.0656 8.011C11.8924 8.1544 11.7569 8.33998 11.6592 8.56773C11.566 8.79127 11.5193 9.02324 11.5193 9.26365C11.5193 9.63059 11.637 9.88576 11.8724 10.0292C12.1078 10.1726 12.4231 10.2443 12.8184 10.2443Z" fill="currentColor"/>
<path d="M15.3166 10.8389C15.3166 10.6745 15.3788 10.5353 15.5032 10.4214C15.6275 10.3033 15.7763 10.2443 15.9495 10.2443H16.9488C17.122 10.2443 17.2708 10.3033 17.3952 10.4214C17.5195 10.5353 17.5817 10.6745 17.5817 10.8389C17.5817 11.0034 17.5195 11.1426 17.3952 11.2565C17.2708 11.3746 17.122 11.4336 16.9488 11.4336H15.9495C15.7763 11.4336 15.6275 11.3746 15.5032 11.2565C15.3788 11.1426 15.3166 11.0034 15.3166 10.8389Z" fill="currentColor"/>
<path d="M16.3226 10.8389C16.3226 10.6745 16.3848 10.5353 16.5091 10.4214C16.629 10.3033 16.7756 10.2443 16.9488 10.2443C17.575 10.2443 18.0281 10.1515 18.3079 9.96589C18.5877 9.7761 18.7276 9.42181 18.7276 8.90304C18.7276 8.7259 18.712 8.49182 18.6809 8.2008C18.6543 7.90978 18.6099 7.62719 18.5477 7.35305C18.5255 7.19277 18.5655 7.04727 18.6676 6.91652C18.7742 6.78155 18.9119 6.70142 19.0806 6.67611C19.2494 6.65502 19.4026 6.69509 19.5403 6.79631C19.678 6.89332 19.7624 7.02196 19.7935 7.18223C19.869 7.49434 19.9223 7.80645 19.9534 8.11855C19.9845 8.42644 20 8.69005 20 8.90937C20 9.74868 19.7402 10.3792 19.2206 10.801C18.7054 11.2228 17.9481 11.4336 16.9488 11.4336C16.7756 11.4336 16.629 11.3746 16.5091 11.2565C16.3848 11.1426 16.3226 11.0034 16.3226 10.8389ZM17.1287 15.6661C17.0488 15.4214 17.1576 15.2295 17.4551 15.0904C17.7927 14.9554 18.0725 14.7888 18.2945 14.5906C18.521 14.3966 18.6343 14.2278 18.6343 14.0844C18.6343 13.9073 18.4611 13.8187 18.1147 13.8187C17.9459 13.8187 17.7483 13.844 17.5218 13.8946C17.2952 13.9453 17.0754 14.0064 16.8622 14.0781C16.649 14.154 16.4758 14.2236 16.3426 14.2869C16.045 14.4092 15.8207 14.3755 15.6697 14.1857C15.5898 14.0844 15.5587 13.9706 15.5765 13.844C15.5942 13.7175 15.6586 13.6163 15.7697 13.5404C15.9207 13.4349 16.125 13.3358 16.3826 13.243C16.6402 13.1502 16.92 13.0743 17.222 13.0153C17.5284 12.9604 17.826 12.933 18.1147 12.933C18.5099 12.933 18.8497 13.03 19.1339 13.224C19.4182 13.4181 19.5603 13.7049 19.5603 14.0844C19.5603 14.3206 19.4693 14.5674 19.2872 14.8246C19.1095 15.0861 18.8808 15.3202 18.601 15.5269C18.3212 15.7378 18.0303 15.8896 17.7283 15.9824C17.6039 16.0161 17.4818 16.0014 17.3619 15.9381C17.2419 15.8748 17.1642 15.7842 17.1287 15.6661Z" fill="currentColor"/>
</svg>
