<svg width="234" height="174" viewBox="0 0 234 174" fill="none" xmlns="http://www.w3.org/2000/svg">
<path d="M233.5 152.531H0.5V152.647H233.5V152.531Z" fill="#EBEBEB"/>
<path d="M210.154 160.004H203.21V160.12H210.154V160.004Z" fill="#EBEBEB"/>
<path d="M154.848 161.264H150.798V161.38H154.848V161.264Z" fill="#EBEBEB"/>
<path d="M201.242 155.692H185.309V155.809H201.242V155.692Z" fill="#EBEBEB"/>
<path d="M51.5874 158.088H31.4597V158.204H51.5874V158.088Z" fill="#EBEBEB"/>
<path d="M62.9958 158.088H55.7368V158.204H62.9958V158.088Z" fill="#EBEBEB"/>
<path d="M119.215 156.53H75.5627V156.646H119.215V156.53Z" fill="#EBEBEB"/>
<path d="M110.948 131.824H20.9633C20.258 131.823 19.5819 131.544 19.0832 131.047C18.5845 130.55 18.304 129.876 18.3032 129.174V3.14937C18.3042 2.44686 18.5848 1.77342 19.0835 1.27675C19.5822 0.780085 20.2582 0.500743 20.9633 0.5H110.948C111.653 0.500991 112.329 0.78044 112.827 1.27708C113.326 1.77372 113.606 2.44702 113.607 3.14937V129.172C113.607 129.875 113.327 130.549 112.828 131.046C112.33 131.543 111.654 131.823 110.948 131.824ZM20.9642 0.616168C20.2915 0.618145 19.6469 0.885277 19.1712 1.35921C18.6956 1.83315 18.4274 2.47538 18.4255 3.14563V129.172C18.4274 129.842 18.6956 130.484 19.1712 130.958C19.6469 131.432 20.2915 131.699 20.9642 131.701H110.949C111.622 131.699 112.267 131.432 112.742 130.958C113.218 130.484 113.486 129.842 113.488 129.172V3.14937C113.486 2.47913 113.218 1.8369 112.742 1.36296C112.267 0.889022 111.622 0.621894 110.949 0.619917L20.9642 0.616168Z" fill="#EBEBEB"/>
<path d="M211.743 131.824H121.758C121.053 131.823 120.377 131.543 119.878 131.046C119.38 130.55 119.099 129.876 119.099 129.174V3.14937C119.099 2.44694 119.38 1.7735 119.878 1.27681C120.377 0.780115 121.053 0.500744 121.758 0.5H211.743C212.448 0.500743 213.124 0.780085 213.623 1.27675C214.121 1.77342 214.402 2.44686 214.403 3.14937V129.172C214.403 129.875 214.122 130.549 213.624 131.046C213.125 131.543 212.448 131.823 211.743 131.824ZM121.758 0.616168C121.085 0.618145 120.44 0.885277 119.965 1.35921C119.489 1.83315 119.221 2.47538 119.219 3.14563V129.172C119.221 129.842 119.489 130.484 119.965 130.958C120.44 131.432 121.085 131.699 121.758 131.701H211.743C212.416 131.7 213.062 131.434 213.539 130.96C214.015 130.486 214.284 129.843 214.286 129.172V3.14937C214.284 2.47832 214.015 1.83538 213.539 1.36131C213.062 0.887242 212.416 0.620658 211.743 0.619917L121.758 0.616168Z" fill="#EBEBEB"/>
<path d="M100.445 152.53H109.123L109.123 93.1611H100.445V152.53Z" fill="#E6E6E6"/>
<path d="M103.5 152.531H100.445V141.251H106.703L103.5 152.531Z" fill="#F0F0F0"/>
<path d="M192.211 152.53H200.889V93.1611H192.211V152.53Z" fill="#E6E6E6"/>
<path d="M100.445 149.451H194.877V93.1613L100.445 93.1613V149.451Z" fill="#F0F0F0"/>
<path d="M191.826 152.531H194.881V141.251H188.619L191.826 152.531Z" fill="#F0F0F0"/>
<path d="M163.744 97.8222V144.387H191.737V97.8222H163.744Z" fill="#E6E6E6"/>
<path d="M174.972 99.4596H180.51C182.854 99.4833 185.122 98.634 186.87 97.0781H168.613C170.361 98.6338 172.628 99.4831 174.972 99.4596V99.4596Z" fill="#F0F0F0"/>
<path d="M133.665 97.8222V144.387H161.658V97.8222H133.665Z" fill="#E6E6E6"/>
<path d="M144.609 99.4596H150.148C152.491 99.4831 154.759 98.6338 156.507 97.0781H138.249C139.997 98.634 142.266 99.4833 144.609 99.4596V99.4596Z" fill="#F0F0F0"/>
<path d="M103.585 97.8222V144.387H131.578V97.8222H103.585Z" fill="#E6E6E6"/>
<path d="M114.53 99.4596H120.068C122.412 99.4833 124.68 98.634 126.428 97.0781H108.17C109.918 98.634 112.186 99.4833 114.53 99.4596V99.4596Z" fill="#F0F0F0"/>
<path d="M33.1108 152.53H92.3203L92.3203 19.9192H33.1108L33.1108 152.53Z" fill="#F0F0F0"/>
<path d="M33.1109 152.53H91.0708L91.0708 19.9192H33.1109L33.1109 152.53Z" fill="#F5F5F5"/>
<path d="M87.5391 149.521L87.5391 22.9277L36.6425 22.9277L36.6425 149.521H87.5391Z" fill="#F0F0F0"/>
<path d="M82.5376 46.4714C82.5376 44.6559 82.1787 42.8581 81.4814 41.1808C80.7841 39.5035 79.762 37.9795 78.4735 36.6957C77.185 35.4119 75.6554 34.3936 73.9719 33.6988C72.2884 33.0041 70.4841 32.6465 68.6619 32.6465H55.5205C51.8404 32.6465 48.3111 34.103 45.7089 36.6957C43.1067 39.2884 41.6448 42.8048 41.6448 46.4714H82.5376Z" fill="#FAFAFA"/>
<path d="M82.5376 141.652V111.409H41.6447V141.652H82.5376Z" fill="#F5F5F5"/>
<path d="M82.5377 54.999H64.5002V107.508H82.5377V54.999Z" fill="#F5F5F5"/>
<path d="M59.6822 54.999H41.6448V107.508H59.6822V54.999Z" fill="#F5F5F5"/>
<path d="M48.1863 81.0164H40.7985C40.4948 81.0157 40.2037 80.8951 39.9889 80.6811C39.7741 80.4671 39.6531 80.1771 39.6523 79.8744V79.8744C39.6533 79.5718 39.7744 79.282 39.9892 79.068C40.2039 78.854 40.4949 78.7334 40.7985 78.7324H48.1863C48.49 78.7334 48.781 78.854 48.9957 79.068C49.2105 79.282 49.3316 79.5718 49.3326 79.8744V79.8744C49.3318 80.1771 49.2108 80.4671 48.996 80.6811C48.7812 80.8951 48.4901 81.0157 48.1863 81.0164Z" fill="#E0E0E0"/>
<path d="M37.5593 149.521L37.5593 22.9277H36.6435L36.6435 149.521H37.5593Z" fill="#F0F0F0"/>
<path d="M129.772 78.6064L192.563 78.6064V19.9193L129.772 19.9193V78.6064Z" fill="#E6E6E6"/>
<path d="M128.189 78.6064L190.98 78.6064V19.9193L128.189 19.9193V78.6064Z" fill="#F5F5F5"/>
<path d="M124.523 82.0029L192.563 82.0029V78.606L124.523 78.606V82.0029Z" fill="#E6E6E6"/>
<path d="M122.741 82.0029L187.277 82.0029V78.606L122.741 78.606V82.0029Z" fill="#F5F5F5"/>
<path d="M188.139 75.5535V22.9717L131.03 22.9717V75.5535H188.139Z" fill="white"/>
<path d="M161.167 75.5535V22.9717H158.001V75.5535H161.167Z" fill="#F5F5F5"/>
<path d="M132.227 75.5535V22.9717H131.03V75.5535H132.227Z" fill="#E6E6E6"/>
<path d="M162.364 75.5535V22.9717H161.167V75.5535H162.364Z" fill="#E6E6E6"/>
<path d="M138.213 80.1614C137.058 68.2401 136.254 48.8954 136.879 42.4256C136.889 42.3144 136.924 42.2068 136.98 42.1099C137.035 42.013 137.111 41.929 137.202 41.8635C137.323 41.7755 137.466 41.723 137.615 41.7121C137.764 41.7012 137.914 41.7323 138.046 41.8018C138.178 41.8713 138.288 41.9765 138.363 42.1054C138.439 42.2342 138.476 42.3815 138.471 42.5305C138.361 45.7364 138.234 53.7492 138.92 67.5722C139.261 74.4532 139.753 79.1655 139.415 80.1595L138.213 80.1614Z" fill="#E6E6E6"/>
<path d="M133.908 52.6849C130.617 49.0472 123.904 46.4606 117.061 46.4737C114.375 46.4793 125.235 50.7054 129.755 55.3736C133.367 59.2502 136.34 63.6722 138.564 68.4753C137.692 61.3506 137.196 56.3208 133.908 52.6849Z" fill="#E6E6E6"/>
<path d="M140.426 53.7923C143.153 50.0037 149.459 47.0902 156.279 46.7604C158.956 46.6311 148.77 51.3856 144.969 56.259C141.936 60.3322 139.631 64.8959 138.154 69.7494C137.955 62.6173 137.696 57.5818 140.426 53.7923Z" fill="#E6E6E6"/>
<path d="M133.761 39.3991C130.977 36.3188 125.29 34.1284 119.495 34.1397C117.221 34.1397 126.417 37.724 130.241 41.6728C133.3 44.9553 135.818 48.6997 137.701 52.7668C136.966 46.7392 136.544 42.4794 133.761 39.3991Z" fill="#E6E6E6"/>
<path d="M139.28 43.9548C141.592 40.7461 146.93 38.2794 152.704 38.0002C154.971 37.8906 146.346 41.9162 143.127 46.043C140.558 49.4938 138.606 53.3603 137.356 57.4724C137.189 51.4279 136.968 47.1616 139.28 43.9548Z" fill="#E6E6E6"/>
<path d="M138.677 93.1599C136.942 93.1599 135.272 92.4987 134.011 91.3119C132.749 90.125 131.991 88.5023 131.891 86.7763L131.291 76.4121H146.063L145.463 86.7763C145.364 88.5023 144.605 90.125 143.344 91.3119C142.082 92.4987 140.412 93.1599 138.677 93.1599Z" fill="#E6E6E6"/>
<path d="M147.019 78.7684H130.338L129.86 74.459H147.501L147.019 78.7684Z" fill="#E6E6E6"/>
<path d="M117 173.5C166.9 173.5 207.353 171.147 207.353 168.243C207.353 165.339 166.9 162.985 117 162.985C67.0997 162.985 26.6475 165.339 26.6475 168.243C26.6475 171.147 67.0997 173.5 117 173.5Z" fill="#F5F5F5"/>
<path d="M118.823 163.219L114.932 163.656L113.498 154.864L117.388 154.428L118.823 163.219Z" fill="#FFC3BD"/>
<path d="M136.243 164.065H132.358L131.39 155.101H135.275L136.243 164.065Z" fill="#FFC3BD"/>
<path d="M132.038 163.615H136.774C136.851 163.615 136.926 163.641 136.986 163.69C137.046 163.738 137.088 163.805 137.105 163.879L137.872 167.32C137.89 167.404 137.889 167.491 137.869 167.574C137.848 167.658 137.809 167.735 137.755 167.802C137.7 167.868 137.631 167.921 137.553 167.957C137.475 167.993 137.39 168.01 137.304 168.009C135.779 167.983 134.671 167.894 132.749 167.894C131.568 167.894 128.006 168.016 126.376 168.016C124.777 168.016 124.532 166.409 125.199 166.264C128.193 165.608 130.449 164.711 131.405 163.853C131.579 163.698 131.805 163.614 132.038 163.615Z" fill="#1F2A37"/>
<path d="M114.868 162.991L119.085 162.515C119.161 162.506 119.239 162.524 119.304 162.564C119.369 162.605 119.419 162.667 119.444 162.74L120.596 166.072C120.625 166.153 120.635 166.239 120.625 166.324C120.616 166.409 120.587 166.491 120.541 166.563C120.495 166.636 120.433 166.697 120.359 166.741C120.286 166.786 120.204 166.814 120.118 166.822C118.595 166.968 116.387 167.127 114.476 167.343C112.241 167.596 111.869 168.192 109.232 168.131C107.634 168.094 107.233 166.478 107.904 166.351C110.958 165.76 111.548 165.3 113.975 163.402C114.229 163.185 114.538 163.043 114.868 162.991V162.991Z" fill="#1F2A37"/>
<path d="M118.301 50.3184C116.995 51.392 115.711 52.3251 114.382 53.2807C113.054 54.2363 111.697 55.1235 110.301 55.9844C108.904 56.8454 107.471 57.6707 105.969 58.4202C104.433 59.2131 102.833 59.878 101.187 60.4081C100.752 60.5468 100.328 60.6611 99.8391 60.7829C99.361 60.8862 98.8776 60.9634 98.391 61.0143C97.5156 61.108 96.692 61.1501 95.8711 61.1876C94.235 61.2625 92.6299 61.2607 91.0267 61.2494C87.8204 61.211 84.6413 61.0574 81.4481 60.7763L81.4001 57.8721C84.536 57.4702 87.6859 57.1227 90.803 56.7732C92.361 56.6046 93.9153 56.4154 95.4338 56.2177C96.1861 56.1156 96.9383 55.9956 97.6322 55.8673C97.9305 55.8148 98.2256 55.7457 98.5161 55.6603C98.7897 55.5666 99.1254 55.4598 99.4357 55.3352C100.768 54.7961 102.062 54.1657 103.307 53.4484C104.596 52.7111 105.886 51.9195 107.154 51.0782C108.421 50.2369 109.683 49.3657 110.933 48.4766C112.184 47.5875 113.434 46.646 114.607 45.7598L118.301 50.3184Z" fill="#FFC3BD"/>
<path d="M122.098 47.0095C121.54 50.6687 113.807 56.2664 113.807 56.2664L108.259 49.4059C110.69 46.8218 113.266 44.3786 115.977 42.0883C118.474 40.0553 122.706 43.0279 122.098 47.0095Z" fill="#2B7FAD"/>
<path d="M82.47 58.1788L80.2641 56.6143L80.0225 61.557C80.3559 61.5579 80.6845 61.4774 80.9795 61.3226C81.2746 61.1678 81.5271 60.9433 81.715 60.6689L82.47 58.1788Z" fill="#FFC3BD"/>
<path d="M78.2716 55.1748L77.8203 60.0192L80.0243 61.5565L80.266 56.6138L78.2716 55.1748Z" fill="#FFC3BD"/>
<path opacity="0.2" d="M113.5 154.866L114.239 159.398L118.13 158.961L117.391 154.43L113.5 154.866Z" fill="black"/>
<path opacity="0.2" d="M135.277 155.102H131.39L131.89 159.722H135.778L135.277 155.102Z" fill="black"/>
<path d="M135.333 42.2051C135.622 42.2698 135.896 42.3914 136.137 42.563C136.379 42.7345 136.583 42.9524 136.739 43.2039C136.895 43.4554 136.998 43.7354 137.044 44.0274C137.089 44.3194 137.076 44.6175 137.004 44.9042C136.161 48.3906 135.525 51.9236 135.101 55.4848C134.733 58.4827 134.513 61.3466 134.376 63.9425C134.053 70.0273 134.188 74.6656 134.005 76.2376C130.967 76.0277 119.518 75.2342 113.276 74.7995C111.169 58.3637 113.638 47.8749 115.025 43.6132C115.237 42.9491 115.634 42.3588 116.17 41.911C116.706 41.4632 117.359 41.1763 118.052 41.0837C118.848 40.9797 119.799 40.8795 120.804 40.8205C121.155 40.798 121.512 40.7858 121.875 40.7783C124.822 40.8131 127.764 41.017 130.688 41.3891C131.243 41.4547 131.803 41.5362 132.348 41.6234C133.438 41.8051 134.474 42.014 135.333 42.2051Z" fill="#2B7FAD"/>
<path d="M130.508 31.4473C129.756 34.2334 128.836 39.371 130.689 41.3946C125.884 44.6145 122.817 49.1479 121.932 48.1632C121.468 47.648 121.267 41.685 121.876 40.7819C125.091 40.2498 125.173 37.9067 124.776 35.6733L130.508 31.4473Z" fill="#FFC3BD"/>
<path d="M130.316 40.2393C130.316 40.2393 122.487 43.6915 121.448 51.411C123.605 48.9228 128.37 46.2153 128.37 46.2153L126.268 45.6139C127.605 45.1085 128.989 44.7376 130.399 44.5065C130.166 43.4404 131.409 41.3138 131.409 41.3138L130.316 40.2393Z" fill="#2B7FAD"/>
<path d="M123.252 40.1143C123.252 40.1143 124.296 44.523 121.45 51.4106C120.888 49.0066 120.119 46.6557 119.15 44.3844L121.067 44.9043C121.067 44.9043 120.973 44.0153 119.42 42.833C120.067 41.8968 120.874 41.0809 121.804 40.4225L123.252 40.1143Z" fill="#2B7FAD"/>
<path opacity="0.2" d="M128.172 33.1719L124.779 35.6714C124.88 36.1915 124.934 36.7194 124.942 37.249C126.164 37.1553 127.913 35.9533 128.13 34.7027C128.237 34.1991 128.251 33.6804 128.172 33.1719V33.1719Z" fill="black"/>
<path d="M120.559 23.3789C118.664 23.4604 117.619 26.715 119.542 29.3953C121.465 32.0756 123.112 23.2693 120.559 23.3789Z" fill="#1F2A37"/>
<path d="M129.903 26.2426C130.127 30.078 130.455 32.3105 128.76 34.4961C126.212 37.7835 121.285 36.6049 119.915 32.9138C118.682 29.5918 118.521 23.878 122.078 21.9153C122.86 21.4784 123.741 21.248 124.638 21.2461C125.535 21.2442 126.417 21.4708 127.201 21.9045C127.986 22.3381 128.645 22.9643 129.118 23.7236C129.591 24.4829 129.861 25.35 129.903 26.2426V26.2426Z" fill="#FFC3BD"/>
<path d="M130.468 29.19C129.439 28.5888 128.54 27.7896 127.823 26.8389C127.107 25.8882 126.588 24.805 126.296 23.6524C125.167 23.9184 119.544 26.4966 117.814 23.6524C116.085 20.8081 118.261 19.1396 121.497 20.8906C120.066 18.3742 121.367 17.1432 125.863 17.0346C130.36 16.9259 129.755 19.5228 129.755 19.5228C129.755 19.5228 133.159 18.0464 134.362 20.647C135.757 23.6355 133.184 28.7385 130.468 29.19Z" fill="#1F2A37"/>
<path d="M128.986 18.8359C129.027 18.8359 130.689 19.234 132.603 17.3145C132.26 18.952 129.287 20.0425 129.287 20.0425L128.986 18.8359Z" fill="#1F2A37"/>
<path d="M131.22 24.4465C129.427 23.8291 127.256 26.4757 128.058 29.6712C128.86 32.8668 133.636 25.2784 131.22 24.4465Z" fill="#1F2A37"/>
<path d="M132.234 29.4327C132.07 30.3852 131.534 31.234 130.743 31.7935C129.689 32.5261 128.739 31.6886 128.675 30.4763C128.62 29.3858 129.101 27.6902 130.33 27.44C130.6 27.3898 130.878 27.4075 131.139 27.4916C131.4 27.5757 131.636 27.7234 131.825 27.9214C132.014 28.1194 132.151 28.3614 132.222 28.6253C132.294 28.8892 132.298 29.1668 132.234 29.4327V29.4327Z" fill="#FFC3BD"/>
<path d="M119.118 118.413C120.052 107.091 126.901 75.7469 126.901 75.7469L113.273 74.7998C113.273 74.7998 108.017 105.913 107.615 117.721C107.196 129.998 112.152 157.285 112.152 157.285L118.688 156.543C118.688 156.543 118.181 129.783 119.118 118.413Z" fill="#2B7FAD"/>
<path opacity="0.5" d="M119.118 118.413C120.052 107.091 126.901 75.7469 126.901 75.7469L113.273 74.7998C113.273 74.7998 108.017 105.913 107.615 117.721C107.196 129.998 112.152 157.285 112.152 157.285L118.688 156.543C118.688 156.543 118.181 129.783 119.118 118.413Z" fill="white"/>
<path opacity="0.2" d="M121.767 86.3613C119.02 89.8613 118.971 102.154 120.033 111.235C121.046 104.684 122.642 96.3639 124.04 89.4285L121.767 86.3613Z" fill="black"/>
<path d="M120.627 75.3105C120.627 75.3105 122.097 108.451 123.738 119.674C125.534 131.965 130.095 158.827 130.095 158.827H137.211C137.211 158.827 136.041 133.527 135.101 121.452C134.032 107.698 134.003 76.2399 134.003 76.2399L120.627 75.3105Z" fill="#2B7FAD"/>
<path opacity="0.5" d="M120.627 75.3105C120.627 75.3105 122.097 108.451 123.738 119.674C125.534 131.965 130.095 158.827 130.095 158.827H137.211C137.211 158.827 136.041 133.527 135.101 121.452C134.032 107.698 134.003 76.2399 134.003 76.2399L120.627 75.3105Z" fill="white"/>
<path d="M129.24 158.977H137.619V156.483L128.252 156.321L129.24 158.977Z" fill="#2B7FAD"/>
<path d="M111.867 158.018L119.656 157.139L119.374 154.631L110.651 155.482L111.867 158.018Z" fill="#2B7FAD"/>
<path d="M124.235 28.0013C124.272 28.3114 124.141 28.5822 123.934 28.6065C123.727 28.6309 123.535 28.3995 123.498 28.0894C123.462 27.7793 123.592 27.5085 123.799 27.4842C124.006 27.4598 124.198 27.6912 124.235 28.0013Z" fill="#1F2A37"/>
<path d="M120.719 28.4222C120.757 28.7323 120.625 29.003 120.418 29.0274C120.211 29.0517 120.019 28.8203 119.982 28.5103C119.944 28.2002 120.076 27.9294 120.283 27.9051C120.49 27.8807 120.681 28.1158 120.719 28.4222Z" fill="#1F2A37"/>
<path d="M121.855 28.4424C121.598 29.4342 121.206 30.3862 120.689 31.2716C120.919 31.3976 121.175 31.4718 121.437 31.4891C121.7 31.5064 121.963 31.4664 122.208 31.3719L121.855 28.4424Z" fill="#ED847E"/>
<path d="M125.191 26.7377C125.158 26.7475 125.123 26.7482 125.09 26.7398C125.057 26.7314 125.027 26.7141 125.003 26.6899C124.847 26.5195 124.654 26.3882 124.437 26.3068C124.221 26.2254 123.989 26.1962 123.759 26.2215C123.711 26.2295 123.662 26.2188 123.622 26.1916C123.582 26.1643 123.554 26.1227 123.544 26.0753C123.539 26.0516 123.539 26.0271 123.543 26.0034C123.548 25.9797 123.558 25.9571 123.571 25.9371C123.585 25.9171 123.603 25.9 123.623 25.8869C123.643 25.8738 123.666 25.8649 123.69 25.8608C123.98 25.8233 124.275 25.8559 124.55 25.9557C124.824 26.0554 125.071 26.2195 125.269 26.4341C125.303 26.469 125.321 26.5155 125.321 26.5639C125.321 26.6122 125.303 26.6587 125.269 26.6936C125.247 26.7146 125.22 26.7297 125.191 26.7377V26.7377Z" fill="#1F2A37"/>
<path d="M123.84 32.6082C124.283 32.5152 124.698 32.3171 125.049 32.0308C125.399 31.7445 125.676 31.3783 125.855 30.9631C125.863 30.9382 125.862 30.911 125.85 30.8872C125.839 30.8635 125.818 30.8453 125.793 30.8366C125.769 30.8279 125.741 30.8295 125.717 30.8409C125.694 30.8523 125.675 30.8727 125.667 30.8975C125.495 31.2794 125.236 31.6159 124.911 31.8798C124.585 32.1438 124.202 32.3278 123.792 32.4171C123.779 32.42 123.767 32.4253 123.756 32.4328C123.746 32.4403 123.737 32.4498 123.73 32.4608C123.723 32.4717 123.718 32.4839 123.716 32.4967C123.714 32.5094 123.714 32.5225 123.717 32.5351C123.72 32.5477 123.726 32.5596 123.733 32.5702C123.741 32.5807 123.75 32.5897 123.761 32.5966C123.772 32.6034 123.784 32.6081 123.797 32.6102C123.81 32.6124 123.823 32.612 123.836 32.6091L123.84 32.6082Z" fill="#1F2A37"/>
<path d="M119.065 27.3968C119.028 27.409 118.988 27.409 118.951 27.3968C118.906 27.38 118.868 27.3464 118.847 27.3029C118.826 27.2594 118.823 27.2095 118.837 27.1635C118.926 26.8856 119.08 26.633 119.287 26.4272C119.494 26.2213 119.748 26.0684 120.027 25.9812C120.074 25.9705 120.124 25.9784 120.165 26.0032C120.207 26.028 120.237 26.0677 120.25 26.1142C120.26 26.1611 120.253 26.2103 120.228 26.2516C120.203 26.293 120.164 26.3233 120.117 26.3363V26.3363C119.898 26.4092 119.699 26.533 119.537 26.6975C119.375 26.862 119.254 27.0625 119.185 27.2825C119.175 27.3094 119.159 27.3338 119.139 27.3536C119.118 27.3734 119.093 27.3882 119.065 27.3968Z" fill="#1F2A37"/>
<path d="M130.758 164.291C130.492 164.312 130.227 164.242 130.006 164.093C129.937 164.034 129.884 163.959 129.851 163.874C129.818 163.79 129.807 163.699 129.818 163.609C129.818 163.555 129.833 163.503 129.86 163.457C129.888 163.411 129.928 163.374 129.976 163.349C130.408 163.128 131.659 163.896 131.8 163.985C131.816 163.994 131.828 164.008 131.835 164.025C131.843 164.042 131.845 164.06 131.842 164.078C131.839 164.096 131.831 164.113 131.819 164.126C131.806 164.139 131.79 164.149 131.773 164.153C131.441 164.237 131.101 164.283 130.758 164.291V164.291ZM130.181 163.49C130.14 163.488 130.099 163.496 130.062 163.512C130.042 163.523 130.027 163.539 130.017 163.558C130.006 163.577 130.002 163.598 130.003 163.62C129.995 163.682 130.002 163.744 130.024 163.802C130.046 163.86 130.081 163.912 130.128 163.953C130.562 164.15 131.056 164.175 131.508 164.022C131.103 163.76 130.651 163.58 130.176 163.49H130.181Z" fill="#2B7FAD"/>
<path d="M131.748 164.155C131.733 164.155 131.718 164.151 131.704 164.144C131.303 163.926 130.525 163.078 130.607 162.645C130.62 162.577 130.657 162.516 130.71 162.473C130.763 162.429 130.83 162.405 130.899 162.404C130.969 162.396 131.04 162.402 131.108 162.422C131.175 162.442 131.238 162.476 131.291 162.522C131.743 162.89 131.836 164.007 131.839 164.054C131.84 164.07 131.837 164.087 131.829 164.102C131.822 164.116 131.811 164.129 131.797 164.138C131.783 164.148 131.766 164.154 131.748 164.155ZM130.964 162.586H130.922C130.802 162.601 130.792 162.655 130.787 162.68C130.738 162.934 131.234 163.575 131.634 163.878C131.607 163.435 131.447 163.011 131.175 162.66C131.115 162.611 131.041 162.585 130.964 162.586V162.586Z" fill="#2B7FAD"/>
<path d="M114.552 163.564L114.537 163.57C113.929 163.764 112.84 164.039 112.375 163.715C112.306 163.667 112.25 163.604 112.211 163.53C112.173 163.456 112.153 163.374 112.153 163.291C112.149 163.241 112.159 163.191 112.18 163.145C112.202 163.1 112.235 163.061 112.276 163.032C112.713 162.725 114.356 163.328 114.542 163.398C114.558 163.405 114.572 163.416 114.582 163.43C114.592 163.444 114.598 163.461 114.599 163.478C114.6 163.495 114.596 163.513 114.588 163.528C114.58 163.543 114.567 163.556 114.552 163.565V163.564ZM112.406 163.166L112.384 163.18C112.367 163.191 112.354 163.207 112.346 163.225C112.337 163.243 112.334 163.264 112.337 163.284C112.336 163.339 112.348 163.393 112.373 163.442C112.398 163.491 112.435 163.533 112.48 163.565C113.052 163.742 113.669 163.709 114.218 163.471C113.649 163.219 113.025 163.115 112.405 163.166H112.406Z" fill="#2B7FAD"/>
<path d="M114.552 163.563C114.53 163.574 114.505 163.576 114.481 163.569C113.992 163.413 112.977 162.685 112.995 162.243C113 162.139 113.059 162.003 113.308 161.95C113.397 161.93 113.49 161.928 113.58 161.945C113.67 161.962 113.756 161.998 113.832 162.049C114.231 162.429 114.499 162.923 114.599 163.464C114.603 163.479 114.602 163.496 114.597 163.511C114.592 163.526 114.583 163.54 114.571 163.551C114.565 163.555 114.559 163.56 114.552 163.563V163.563ZM113.245 162.167C113.182 162.201 113.18 162.24 113.179 162.255C113.166 162.521 113.867 163.104 114.376 163.334C114.282 162.903 114.057 162.51 113.732 162.21C113.676 162.172 113.613 162.145 113.547 162.133C113.48 162.12 113.412 162.121 113.346 162.136C113.311 162.142 113.277 162.152 113.245 162.167Z" fill="#2B7FAD"/>
<path d="M138.611 47.7886C138.512 49.3007 138.333 50.7087 138.148 52.1627C137.963 53.6167 137.714 55.0416 137.44 56.4796C136.899 59.4168 136.099 62.3009 135.051 65.0985L134.589 66.1825L134.472 66.4532L134.443 66.5207L134.395 66.6237L134.26 66.8907C134.081 67.2151 133.866 67.5187 133.62 67.7957C133.214 68.2502 132.74 68.6389 132.215 68.948C131.789 69.2004 131.343 69.4163 130.881 69.5935C129.341 70.147 127.73 70.4819 126.096 70.5884C123.13 70.8092 120.148 70.6983 117.207 70.2577L117.313 67.3535L119.369 67.1221C120.058 67.0406 120.743 66.9347 121.425 66.8411C122.786 66.6415 124.132 66.4186 125.416 66.1216C126.603 65.8808 127.757 65.4996 128.853 64.9861C129.149 64.8623 129.408 64.6653 129.606 64.4137C129.618 64.3472 129.469 64.6386 129.644 64.173L129.952 63.2773C130.705 60.7098 131.281 58.094 131.676 55.4482C131.897 54.101 132.086 52.7417 132.268 51.3786C132.451 50.0155 132.601 48.6243 132.745 47.3174L138.611 47.7886Z" fill="#FFC3BD"/>
<path d="M138.949 44.9821C140.851 48.1608 139.231 58.1512 139.231 58.1512L129.264 56.316C129.264 56.316 128.725 50.6013 130.622 46.2037C132.682 41.4174 136.645 41.1308 138.949 44.9821Z" fill="#2B7FAD"/>
<path d="M114.522 76.3388L109.233 51.8274C108.98 50.7807 108.391 49.8446 107.557 49.1602C106.722 48.4758 105.687 48.0803 104.607 48.0332H84.3413C85.4212 48.0801 86.4566 48.4755 87.2912 49.1599C88.1259 49.8443 88.7145 50.7805 88.9684 51.8274L94.2575 76.3388C94.5114 77.3855 95.0999 78.3216 95.9344 79.006C96.7688 79.6904 97.804 80.0859 98.8837 80.133H119.149C118.069 80.0859 117.034 79.6904 116.199 79.006C115.365 78.3216 114.776 77.3855 114.522 76.3388V76.3388Z" fill="#1F2A37"/>
<path opacity="0.7" d="M114.522 76.3388L109.233 51.8274C108.98 50.7807 108.391 49.8446 107.557 49.1602C106.722 48.4758 105.687 48.0803 104.607 48.0332H84.3413C85.4212 48.0801 86.4566 48.4755 87.2912 49.1599C88.1259 49.8443 88.7145 50.7805 88.9684 51.8274L94.2575 76.3388C94.5114 77.3855 95.0999 78.3216 95.9344 79.006C96.7688 79.6904 97.804 80.0859 98.8837 80.133H119.149C118.069 80.0859 117.034 79.6904 116.199 79.006C115.365 78.3216 114.776 77.3855 114.522 76.3388V76.3388Z" fill="#2B7FAD"/>
<path d="M84.3413 48.0332H104.606C103.569 48.0526 102.574 48.4488 101.809 49.1475C101.044 49.8462 100.561 50.7992 100.452 51.8274L95.195 108.787C95.0854 109.815 94.6029 110.768 93.8379 111.467C93.073 112.165 92.0783 112.562 91.0408 112.581H78.3922C77.9049 112.59 77.4214 112.495 76.9739 112.303C76.5265 112.111 76.1254 111.826 75.7976 111.466C75.4698 111.107 75.2228 110.682 75.0732 110.22C74.9236 109.758 74.8748 109.269 74.93 108.787L80.1881 51.8274C80.2974 50.7994 80.7798 49.8465 81.5446 49.1478C82.3094 48.4492 83.3039 48.0528 84.3413 48.0332Z" fill="#2B7FAD"/>
<path d="M87.5787 108.786C87.5234 109.269 87.5722 109.757 87.7218 110.219C87.8715 110.681 88.1184 111.106 88.4462 111.465C88.774 111.825 89.1751 112.11 89.6226 112.302C90.07 112.495 90.5536 112.589 91.0408 112.58H70.7758C70.2886 112.589 69.805 112.495 69.3574 112.303C68.9099 112.11 68.5088 111.825 68.1809 111.466C67.8531 111.106 67.6061 110.681 67.4565 110.219C67.307 109.757 67.2583 109.269 67.3137 108.786H87.5787Z" fill="#1F2A37"/>
<path opacity="0.7" d="M87.5787 108.786C87.5234 109.269 87.5722 109.757 87.7218 110.219C87.8715 110.681 88.1184 111.106 88.4462 111.465C88.774 111.825 89.1751 112.11 89.6226 112.302C90.07 112.495 90.5536 112.589 91.0408 112.58H70.7758C70.2886 112.589 69.805 112.495 69.3574 112.303C68.9099 112.11 68.5088 111.825 68.1809 111.466C67.8531 111.106 67.6061 110.681 67.4565 110.219C67.307 109.757 67.2583 109.269 67.3137 108.786H87.5787Z" fill="#2B7FAD"/>
<g opacity="0.5">
<path opacity="0.5" d="M96.9401 54.4154H83.227C83.1212 54.4168 83.0162 54.3958 82.9191 54.3537C82.822 54.3116 82.7349 54.2495 82.6638 54.1713C82.5927 54.0932 82.539 54.0008 82.5064 53.9004C82.4738 53.8001 82.4631 53.6939 82.4748 53.5891V53.5891C82.4992 53.3654 82.6044 53.1582 82.7709 53.0062C82.9373 52.8541 83.1536 52.7676 83.3794 52.7628H97.0906C97.1964 52.7613 97.3014 52.7823 97.3985 52.8244C97.4957 52.8665 97.5827 52.9286 97.6538 53.0068C97.7249 53.0849 97.7786 53.1773 97.8112 53.2777C97.8438 53.3781 97.8545 53.4842 97.8428 53.5891V53.5891C97.8185 53.8124 97.7135 54.0194 97.5474 54.1714C97.3814 54.3234 97.1655 54.4101 96.9401 54.4154V54.4154Z" fill="white"/>
<path opacity="0.5" d="M96.5319 58.8851H82.8188C82.713 58.8865 82.608 58.8655 82.5109 58.8234C82.4138 58.7814 82.3267 58.7192 82.2556 58.641C82.1845 58.5629 82.1308 58.4705 82.0982 58.3702C82.0656 58.2698 82.0549 58.1636 82.0666 58.0588C82.091 57.8351 82.1962 57.6279 82.3627 57.4759C82.5291 57.3238 82.7454 57.2373 82.9712 57.2325H96.6843C96.7901 57.231 96.8951 57.252 96.9922 57.2941C97.0893 57.3362 97.1763 57.3984 97.2475 57.4765C97.3186 57.5547 97.3723 57.647 97.4049 57.7474C97.4374 57.8478 97.4482 57.9539 97.4365 58.0588V58.0588C97.4123 58.2825 97.3071 58.4898 97.1406 58.6419C96.9741 58.794 96.7577 58.8804 96.5319 58.8851V58.8851Z" fill="white"/>
<path opacity="0.5" d="M92.7625 63.3548H82.4109C82.305 63.3562 82.2 63.3352 82.1029 63.2932C82.0058 63.2511 81.9188 63.1889 81.8476 63.1108C81.7765 63.0326 81.7229 62.9403 81.6903 62.8399C81.6577 62.7395 81.6469 62.6334 81.6587 62.5285V62.5285C81.683 62.3048 81.7883 62.0976 81.9547 61.9456C82.1212 61.7935 82.3375 61.707 82.5632 61.7022H92.9148C93.0207 61.7008 93.1256 61.7218 93.2227 61.7638C93.3199 61.8059 93.4069 61.8681 93.478 61.9462C93.5492 62.0244 93.6028 62.1167 93.6354 62.2171C93.668 62.3175 93.6787 62.4236 93.667 62.5285V62.5285C93.6426 62.7522 93.5374 62.9594 93.3709 63.1114C93.2045 63.2635 92.9882 63.35 92.7625 63.3548V63.3548Z" fill="white"/>
<path opacity="0.5" d="M85.5137 67.8236H82.0037C81.8978 67.825 81.7928 67.804 81.6957 67.7619C81.5986 67.7198 81.5116 67.6577 81.4404 67.5795C81.3693 67.5014 81.3156 67.409 81.283 67.3087C81.2505 67.2083 81.2397 67.1021 81.2514 66.9973V66.9973C81.2756 66.7737 81.3806 66.5665 81.5469 66.4144C81.7132 66.2624 81.9294 66.1758 82.155 66.171H85.6661C85.7719 66.1695 85.8769 66.1905 85.974 66.2326C86.0711 66.2747 86.1582 66.3369 86.2293 66.415C86.3004 66.4932 86.3541 66.5855 86.3867 66.6859C86.4192 66.7863 86.43 66.8924 86.4183 66.9973V66.9973C86.3939 67.2209 86.2887 67.4281 86.1222 67.5802C85.9558 67.7322 85.7395 67.8187 85.5137 67.8236V67.8236Z" fill="white"/>
<path opacity="0.5" d="M95.3076 72.2933H81.5908C81.4849 72.2947 81.38 72.2737 81.2828 72.2316C81.1857 72.1896 81.0987 72.1274 81.0276 72.0492C80.9564 71.9711 80.9028 71.8788 80.8702 71.7784C80.8376 71.678 80.8268 71.5718 80.8386 71.467V71.467C80.863 71.2433 80.9682 71.0361 81.1347 70.8841C81.3011 70.732 81.5174 70.6455 81.7431 70.6407H95.4562C95.5621 70.6392 95.6671 70.6603 95.7642 70.7023C95.8613 70.7444 95.9483 70.8066 96.0195 70.8847C96.0906 70.9629 96.1443 71.0552 96.1768 71.1556C96.2094 71.256 96.2202 71.3621 96.2084 71.467V71.467C96.1842 71.69 96.0795 71.8967 95.9138 72.0487C95.7481 72.2006 95.5328 72.2875 95.3076 72.2933V72.2933Z" fill="white"/>
<path opacity="0.5" d="M89.4996 76.763H81.1875C81.0816 76.7645 80.9766 76.7434 80.8795 76.7014C80.7824 76.6593 80.6954 76.5971 80.6242 76.519C80.5531 76.4408 80.4995 76.3485 80.4669 76.2481C80.4343 76.1477 80.4235 76.0416 80.4353 75.9367V75.9367C80.4594 75.7131 80.5645 75.5059 80.7308 75.3539C80.8971 75.2018 81.1132 75.1153 81.3389 75.1104H89.651C89.7569 75.109 89.8618 75.13 89.9589 75.1721C90.0561 75.2141 90.1431 75.2763 90.2142 75.3545C90.2854 75.4326 90.339 75.5249 90.3716 75.6253C90.4042 75.7257 90.4149 75.8319 90.4032 75.9367V75.9367C90.3788 76.1602 90.2737 76.3673 90.1075 76.5193C89.9412 76.6714 89.7252 76.758 89.4996 76.763V76.763Z" fill="white"/>
<path opacity="0.5" d="M94.4924 81.2317H80.7793C80.6734 81.2332 80.5684 81.2122 80.4713 81.1701C80.3742 81.128 80.2872 81.0659 80.2161 80.9877C80.1449 80.9096 80.0913 80.8172 80.0587 80.7169C80.0261 80.6165 80.0153 80.5103 80.0271 80.4055V80.4055C80.0514 80.1818 80.1567 79.9746 80.3231 79.8225C80.4896 79.6705 80.7059 79.584 80.9316 79.5792H94.6456C94.7515 79.5777 94.8565 79.5987 94.9536 79.6408C95.0507 79.6829 95.1377 79.7451 95.2089 79.8232C95.28 79.9014 95.3337 79.9937 95.3662 80.0941C95.3988 80.1945 95.4096 80.3006 95.3979 80.4055V80.4055C95.3735 80.6293 95.2681 80.8366 95.1015 80.9887C94.9348 81.1407 94.7183 81.2271 94.4924 81.2317V81.2317Z" fill="white"/>
<path opacity="0.5" d="M90.7229 85.7015H80.3713C80.2655 85.7029 80.1605 85.6819 80.0634 85.6398C79.9662 85.5978 79.8792 85.5356 79.8081 85.4575C79.737 85.3793 79.6833 85.287 79.6507 85.1866C79.6181 85.0862 79.6074 84.98 79.6191 84.8752V84.8752C79.6435 84.6515 79.7487 84.4443 79.9152 84.2923C80.0816 84.1402 80.2979 84.0537 80.5237 84.0489H90.8752C90.9811 84.0474 91.0861 84.0685 91.1832 84.1105C91.2803 84.1526 91.3673 84.2148 91.4385 84.2929C91.5096 84.3711 91.5633 84.4634 91.5958 84.5638C91.6284 84.6642 91.6392 84.7703 91.6274 84.8752V84.8752C91.6031 85.0989 91.4978 85.3061 91.3314 85.4581C91.165 85.6101 90.9487 85.6967 90.7229 85.7015V85.7015Z" fill="white"/>
<path opacity="0.5" d="M83.4743 90.1692H79.9614C79.8555 90.1707 79.7506 90.1497 79.6535 90.1076C79.5563 90.0655 79.4693 90.0034 79.3982 89.9252C79.327 89.8471 79.2734 89.7547 79.2408 89.6544C79.2082 89.554 79.1974 89.4478 79.2092 89.343V89.343C79.2336 89.1193 79.3388 88.9121 79.5053 88.7601C79.6717 88.608 79.888 88.5215 80.1138 88.5167H83.6285C83.7344 88.5152 83.8394 88.5362 83.9365 88.5783C84.0336 88.6204 84.1206 88.6826 84.1918 88.7607C84.2629 88.8388 84.3166 88.9312 84.3491 89.0316C84.3817 89.132 84.3925 89.2381 84.3807 89.343C84.3563 89.5669 84.2508 89.7744 84.084 89.9265C83.9172 90.0786 83.7004 90.1649 83.4743 90.1692V90.1692Z" fill="white"/>
<path opacity="0.5" d="M93.2682 94.64H79.5552C79.4493 94.6414 79.3443 94.6204 79.2472 94.5783C79.1501 94.5362 79.0631 94.4741 78.9919 94.3959C78.9208 94.3178 78.8672 94.2254 78.8346 94.1251C78.802 94.0247 78.7912 93.9185 78.8029 93.8137V93.8137C78.8273 93.59 78.9326 93.3828 79.099 93.2308C79.2655 93.0787 79.4817 92.9922 79.7075 92.9874H93.4206C93.5265 92.9859 93.6314 93.0069 93.7285 93.049C93.8257 93.0911 93.9127 93.1533 93.9838 93.2314C94.055 93.3096 94.1086 93.4019 94.1412 93.5023C94.1738 93.6027 94.1846 93.7088 94.1728 93.8137V93.8137C94.1484 94.0373 94.0432 94.2445 93.8767 94.3966C93.7103 94.5486 93.494 94.6351 93.2682 94.64V94.64Z" fill="white"/>
<path opacity="0.5" d="M87.46 99.1087H79.1479C79.0421 99.1102 78.9371 99.0891 78.84 99.0471C78.7429 99.005 78.6558 98.9428 78.5847 98.8647C78.5136 98.7865 78.4599 98.6942 78.4273 98.5938C78.3948 98.4934 78.384 98.3873 78.3957 98.2824V98.2824C78.4199 98.0587 78.5251 97.8514 78.6916 97.6993C78.8581 97.5472 79.0745 97.4608 79.3003 97.4561H87.6114C87.7173 97.4547 87.8223 97.4757 87.9194 97.5178C88.0165 97.5598 88.1035 97.622 88.1747 97.7002C88.2458 97.7783 88.2995 97.8706 88.332 97.971C88.3646 98.0714 88.3754 98.1776 88.3637 98.2824V98.2824C88.3393 98.5059 88.2342 98.713 88.068 98.865C87.9017 99.0171 87.6856 99.1037 87.46 99.1087V99.1087Z" fill="white"/>
<path opacity="0.5" d="M92.4521 103.578H78.739C78.6331 103.58 78.5281 103.559 78.431 103.517C78.3339 103.475 78.2469 103.413 78.1758 103.334C78.1046 103.256 78.051 103.164 78.0184 103.064C77.9858 102.963 77.975 102.857 77.9868 102.752V102.752C78.0112 102.528 78.1164 102.321 78.2828 102.169C78.4493 102.017 78.6656 101.931 78.8913 101.926H92.6025C92.7084 101.924 92.8134 101.945 92.9105 101.987C93.0076 102.03 93.0946 102.092 93.1658 102.17C93.2369 102.248 93.2906 102.34 93.3231 102.441C93.3557 102.541 93.3665 102.647 93.3547 102.752V102.752C93.3304 102.975 93.2255 103.182 93.0594 103.334C92.8933 103.486 92.6775 103.573 92.4521 103.578Z" fill="white"/>
</g>
<path d="M118.508 67.67L115.531 65.0928L114.136 69.8369C114.136 69.8369 117.16 71.4708 118.207 69.9709L118.508 67.67Z" fill="#FFC3BD"/>
<path d="M112.288 64.9072L111.32 68.8832L114.133 69.8387L115.529 65.0936L112.288 64.9072Z" fill="#FFC3BD"/>
</svg>
