<svg width="156" height="124" viewBox="0 0 156 124" fill="none" xmlns="http://www.w3.org/2000/svg">
<path d="M62.1547 124C96.4818 124 124.309 96.2417 124.309 62C124.309 27.7583 96.4818 0 62.1547 0C27.8276 0 0 27.7583 0 62C0 96.2417 27.8276 124 62.1547 124Z" fill="#D5E5EF"/>
<g filter="url(#filter0_d_1507_9215)">
<path d="M33.9779 28.1067H145.856C146.955 28.1067 148.009 28.5422 148.786 29.3173C149.563 30.0925 150 31.1438 150 32.24V52.9067C150 54.0029 149.563 55.0542 148.786 55.8294C148.009 56.6045 146.955 57.04 145.856 57.04H33.9779C32.8789 57.04 31.825 56.6045 31.0479 55.8294C30.2708 55.0542 29.8342 54.0029 29.8342 52.9067V32.24C29.8342 31.1438 30.2708 30.0925 31.0479 29.3173C31.825 28.5422 32.8789 28.1067 33.9779 28.1067V28.1067Z" fill="white"/>
</g>
<path d="M87.0165 34.72H65.4696C64.0965 34.72 62.9834 35.8303 62.9834 37.2C62.9834 38.5696 64.0965 39.68 65.4696 39.68H87.0165C88.3896 39.68 89.5027 38.5696 89.5027 37.2C89.5027 35.8303 88.3896 34.72 87.0165 34.72Z" fill="#95BFD6"/>
<path d="M101.934 45.4666H65.4696C64.0965 45.4666 62.9834 46.5769 62.9834 47.9466C62.9834 49.3162 64.0965 50.4266 65.4696 50.4266H101.934C103.307 50.4266 104.42 49.3162 104.42 47.9466C104.42 46.5769 103.307 45.4666 101.934 45.4666Z" fill="#EAF2F7"/>
<path d="M56.3536 42.5733C56.3536 35.9533 50.9736 30.5867 44.337 30.5867C37.7004 30.5867 32.3204 35.9533 32.3204 42.5733C32.3204 49.1934 37.7004 54.56 44.337 54.56C50.9736 54.56 56.3536 49.1934 56.3536 42.5733Z" fill="#2B7FAD"/>
<path d="M43.5911 46.4538C44.6199 46.4537 45.619 46.1103 46.4295 45.4783L48.9779 48.0203L49.7975 47.2028L47.2483 44.6599C47.8888 43.8339 48.2299 42.8159 48.2161 41.7718C48.2023 40.7276 47.8343 39.7189 47.1722 38.9101C46.5102 38.1012 45.593 37.5399 44.5701 37.3176C43.5473 37.0953 42.4791 37.2251 41.5397 37.6859C40.6003 38.1467 39.845 38.9113 39.397 39.855C38.949 40.7988 38.8346 41.8661 39.0725 42.883C39.3105 43.8999 39.8867 44.8065 40.7072 45.4549C41.5278 46.1033 42.5443 46.4554 43.5911 46.4538V46.4538ZM43.5911 38.3574C44.2795 38.3574 44.9525 38.5611 45.5249 38.9426C46.0973 39.3241 46.5434 39.8663 46.8068 40.5008C47.0703 41.1352 47.1392 41.8333 47.0049 42.5068C46.8706 43.1803 46.5391 43.7989 46.0523 44.2845C45.5656 44.7701 44.9454 45.1007 44.2702 45.2347C43.595 45.3687 42.8951 45.2999 42.2591 45.0371C41.6231 44.7744 41.0795 44.3293 40.6971 43.7584C40.3146 43.1874 40.1105 42.5161 40.1105 41.8294C40.1105 40.9086 40.4772 40.0255 41.1299 39.3744C41.7827 38.7232 42.668 38.3574 43.5911 38.3574V38.3574Z" fill="white"/>
<g filter="url(#filter1_d_1507_9215)">
<path d="M133.425 65.3066H21.547C19.2585 65.3066 17.4033 67.1572 17.4033 69.44V90.1066C17.4033 92.3894 19.2585 94.24 21.547 94.24H133.425C135.714 94.24 137.569 92.3894 137.569 90.1066V69.44C137.569 67.1572 135.714 65.3066 133.425 65.3066Z" fill="white"/>
</g>
<path d="M74.5856 71.9199H53.0387C51.6656 71.9199 50.5525 73.0303 50.5525 74.3999C50.5525 75.7696 51.6656 76.8799 53.0387 76.8799H74.5856C75.9587 76.8799 77.0718 75.7696 77.0718 74.3999C77.0718 73.0303 75.9587 71.9199 74.5856 71.9199Z" fill="#95BFD6"/>
<path d="M89.5028 82.6665H53.0387C51.6656 82.6665 50.5525 83.7768 50.5525 85.1465C50.5525 86.5162 51.6656 87.6265 53.0387 87.6265H89.5028C90.8759 87.6265 91.989 86.5162 91.989 85.1465C91.989 83.7768 90.8759 82.6665 89.5028 82.6665Z" fill="#EAF2F7"/>
<path d="M43.9227 79.7733C43.9227 73.1532 38.5427 67.7866 31.9061 67.7866C25.2695 67.7866 19.8895 73.1532 19.8895 79.7733C19.8895 86.3933 25.2695 91.76 31.9061 91.76C38.5427 91.76 43.9227 86.3933 43.9227 79.7733Z" fill="#2B7FAD"/>
<path d="M31.1602 83.6538C32.189 83.6536 33.1881 83.3102 33.9986 82.6783L36.547 85.2203L37.3666 84.4027L34.8174 81.8599C35.4579 81.0339 35.799 80.0159 35.7852 78.9717C35.7714 77.9276 35.4034 76.9189 34.7413 76.11C34.0793 75.3012 33.162 74.7399 32.1392 74.5176C31.1164 74.2953 30.0482 74.4251 29.1088 74.8859C28.1694 75.3466 27.4141 76.1112 26.9661 77.055C26.5181 77.9988 26.4037 79.0661 26.6416 80.083C26.8796 81.0999 27.4558 82.0064 28.2763 82.6549C29.0969 83.3033 30.1134 83.6554 31.1602 83.6538V83.6538ZM31.1602 75.5574C31.8486 75.5574 32.5216 75.761 33.094 76.1425C33.6664 76.524 34.1125 77.0663 34.3759 77.7007C34.6394 78.3351 34.7083 79.0332 34.574 79.7067C34.4397 80.3802 34.1082 80.9989 33.6214 81.4845C33.1346 81.97 32.5145 82.3007 31.8393 82.4347C31.1641 82.5686 30.4642 82.4999 29.8282 82.2371C29.1922 81.9743 28.6486 81.5293 28.2662 80.9583C27.8837 80.3874 27.6796 79.7161 27.6796 79.0294C27.6796 78.1085 28.0463 77.2254 28.699 76.5743C29.3518 75.9232 30.2371 75.5574 31.1602 75.5574V75.5574Z" fill="white"/>
<defs>
<filter id="filter0_d_1507_9215" x="23.8342" y="25.1067" width="132.166" height="40.9333" filterUnits="userSpaceOnUse" color-interpolation-filters="sRGB">
<feFlood flood-opacity="0" result="BackgroundImageFix"/>
<feColorMatrix in="SourceAlpha" type="matrix" values="0 0 0 0 0 0 0 0 0 0 0 0 0 0 0 0 0 0 127 0" result="hardAlpha"/>
<feOffset dy="3"/>
<feGaussianBlur stdDeviation="3"/>
<feColorMatrix type="matrix" values="0 0 0 0 0 0 0 0 0 0 0 0 0 0 0 0 0 0 0.161 0"/>
<feBlend mode="normal" in2="BackgroundImageFix" result="effect1_dropShadow_1507_9215"/>
<feBlend mode="normal" in="SourceGraphic" in2="effect1_dropShadow_1507_9215" result="shape"/>
</filter>
<filter id="filter1_d_1507_9215" x="11.4033" y="62.3066" width="132.166" height="40.9333" filterUnits="userSpaceOnUse" color-interpolation-filters="sRGB">
<feFlood flood-opacity="0" result="BackgroundImageFix"/>
<feColorMatrix in="SourceAlpha" type="matrix" values="0 0 0 0 0 0 0 0 0 0 0 0 0 0 0 0 0 0 127 0" result="hardAlpha"/>
<feOffset dy="3"/>
<feGaussianBlur stdDeviation="3"/>
<feColorMatrix type="matrix" values="0 0 0 0 0 0 0 0 0 0 0 0 0 0 0 0 0 0 0.161 0"/>
<feBlend mode="normal" in2="BackgroundImageFix" result="effect1_dropShadow_1507_9215"/>
<feBlend mode="normal" in="SourceGraphic" in2="effect1_dropShadow_1507_9215" result="shape"/>
</filter>
</defs>
</svg>
