<svg width="70" height="37" viewBox="0 0 70 37" fill="none" xmlns="http://www.w3.org/2000/svg">
<path d="M5.27344 19.0742C5.17188 18.793 5.21094 18.5195 5.39062 18.2539C5.57031 17.9883 5.80859 17.8203 6.10547 17.75C6.23828 17.7188 6.36719 17.7109 6.49219 17.7266C6.72656 17.7578 6.92578 17.8516 7.08984 18.0078C7.26172 18.1641 7.375 18.3438 7.42969 18.5469C7.46094 18.6797 7.49219 18.8125 7.52344 18.9453C7.75781 19.8125 8.01562 20.5391 8.29688 21.125C8.57812 21.7031 8.93359 22.1406 9.36328 22.4375C9.80078 22.7266 10.375 22.8711 11.0859 22.8711H11.0977C11.4023 22.8711 11.6602 22.9805 11.8711 23.1992C12.0898 23.4102 12.1992 23.668 12.1992 23.9727C12.1992 24.2773 12.0898 24.5352 11.8711 24.7461C11.6602 24.9648 11.4023 25.0742 11.0977 25.0742H11.0859C10.4453 25.0742 9.86719 24.9766 9.35156 24.7812C8.84375 24.5859 8.38672 24.3125 7.98047 23.9609C7.80078 25.8594 7.19141 27.418 6.15234 28.6367C5.12109 29.8633 3.81641 30.7422 2.23828 31.2734C1.91016 31.375 1.61328 31.3477 1.34766 31.1914C1.08203 31.0352 0.910156 30.8242 0.832031 30.5586C0.730469 30.2148 0.757812 29.9141 0.914062 29.6562C1.07812 29.4062 1.28125 29.2422 1.52344 29.1641C2.85938 28.7188 3.91016 27.9805 4.67578 26.9492C5.44922 25.918 5.83594 24.5547 5.83594 22.8594C5.83594 21.75 5.66016 20.5273 5.30859 19.1914C5.30078 19.1523 5.28906 19.1133 5.27344 19.0742ZM4.82812 12.7344C4.82812 12.4219 4.94141 12.1445 5.16797 11.9023C5.40234 11.6523 5.70312 11.5273 6.07031 11.5273C6.32812 11.5273 6.54688 11.582 6.72656 11.6914C6.90625 11.793 7.04688 11.9258 7.14844 12.0898C7.28125 12.2852 7.34766 12.5039 7.34766 12.7461C7.34766 13.0039 7.26172 13.2852 7.08984 13.5898C6.91797 13.8867 6.57812 14.0352 6.07031 14.0352C5.73438 14.0352 5.47656 13.9609 5.29688 13.8125C5.11719 13.6641 4.99219 13.4922 4.92188 13.2969C4.85938 13.1328 4.82812 12.9453 4.82812 12.7344ZM10.0078 23.9727C10.0078 23.668 10.1172 23.4102 10.3359 23.1992C10.5469 22.9805 10.8047 22.8711 11.1094 22.8711C12.2109 22.8711 13.0078 22.6992 13.5 22.3555C13.9922 22.0039 14.2383 21.3477 14.2383 20.3867C14.2383 20.0586 14.2109 19.625 14.1562 19.0859C14.1094 18.5469 14.0312 18.0234 13.9219 17.5156C13.8828 17.2188 13.9531 16.9492 14.1328 16.707C14.3203 16.457 14.5625 16.3086 14.8594 16.2617C15.1562 16.2227 15.4258 16.2969 15.668 16.4844C15.9102 16.6641 16.0586 16.9023 16.1133 17.1992C16.2461 17.7773 16.3398 18.3555 16.3945 18.9336C16.4492 19.5039 16.4766 19.9922 16.4766 20.3984C16.4766 21.9531 16.0195 23.1211 15.1055 23.9023C14.1992 24.6836 12.8672 25.0742 11.1094 25.0742C10.8047 25.0742 10.5469 24.9648 10.3359 24.7461C10.1172 24.5352 10.0078 24.2773 10.0078 23.9727ZM12.2344 12.5117C12.2344 12.1992 12.3477 11.9219 12.5742 11.6797C12.8086 11.4297 13.1094 11.3047 13.4766 11.3047C13.7344 11.3047 13.9531 11.3594 14.1328 11.4688C14.3125 11.5703 14.4531 11.7031 14.5547 11.8672C14.6875 12.0625 14.7539 12.2812 14.7539 12.5234C14.7539 12.7812 14.668 13.0625 14.4961 13.3672C14.3242 13.6641 13.9844 13.8125 13.4766 13.8125C13.1406 13.8125 12.8828 13.7383 12.7031 13.5898C12.5234 13.4414 12.3984 13.2695 12.3281 13.0742C12.2656 12.9102 12.2344 12.7227 12.2344 12.5117ZM23.332 25.0742C21.9805 25.0742 20.9141 24.7617 20.1328 24.1367C19.3516 23.5039 18.9609 22.5391 18.9609 21.2422C18.9609 20.375 19.1406 19.5547 19.5 18.7812C19.8594 18.0078 20.3516 17.3828 20.9766 16.9062C21.6016 16.4219 22.3047 16.1797 23.0859 16.1797C23.7734 16.1797 24.3906 16.3555 24.9375 16.707C25.4922 17.0586 25.9609 17.5312 26.3438 18.125C26.7344 18.7188 27.0312 19.3906 27.2344 20.1406C27.4453 20.8828 27.5508 21.6484 27.5508 22.4375C27.5508 22.5859 27.5469 22.7305 27.5391 22.8711H28.8164C29.1211 22.8711 29.3789 22.9805 29.5898 23.1992C29.8086 23.4102 29.918 23.668 29.918 23.9727C29.918 24.2773 29.8086 24.5352 29.5898 24.7461C29.3789 24.9648 29.1211 25.0742 28.8164 25.0742H27.1406C26.7891 26.1445 26.25 27.1016 25.5234 27.9453C24.8047 28.7891 23.9531 29.4961 22.9688 30.0664C21.9844 30.6367 20.9297 31.043 19.8047 31.2852C19.5156 31.3398 19.2422 31.2773 18.9844 31.0977C18.7266 30.9258 18.5703 30.6953 18.5156 30.4062C18.4609 30.1094 18.5195 29.8359 18.6914 29.5859C18.8711 29.3438 19.1055 29.1836 19.3945 29.1055C20.7227 28.7539 21.8516 28.2305 22.7812 27.5352C23.7188 26.8477 24.4102 26.0273 24.8555 25.0742H23.332ZM23.3203 22.8711H25.4062C25.4141 22.7539 25.418 22.6328 25.418 22.5078C25.418 21.9062 25.3281 21.2852 25.1484 20.6445C24.9688 19.9961 24.7031 19.4492 24.3516 19.0039C24 18.5508 23.5625 18.3242 23.0391 18.3242C22.6484 18.3242 22.3008 18.4609 21.9961 18.7344C21.6914 19 21.4531 19.3438 21.2812 19.7656C21.1172 20.1797 21.0352 20.6094 21.0352 21.0547C21.0352 21.7344 21.2422 22.207 21.6562 22.4727C22.0703 22.7383 22.625 22.8711 23.3203 22.8711ZM27.7148 23.9727C27.7148 23.668 27.8242 23.4102 28.043 23.1992C28.2617 22.9805 28.5234 22.8711 28.8281 22.8711H30.5859C30.8906 22.8711 31.1523 22.9805 31.3711 23.1992C31.5898 23.4102 31.6992 23.668 31.6992 23.9727C31.6992 24.2773 31.5898 24.5352 31.3711 24.7461C31.1523 24.9648 30.8906 25.0742 30.5859 25.0742H28.8281C28.5234 25.0742 28.2617 24.9648 28.043 24.7461C27.8242 24.5352 27.7148 24.2773 27.7148 23.9727ZM29.4844 23.9727C29.4844 23.668 29.5938 23.4102 29.8125 23.1992C30.0234 22.9805 30.2812 22.8711 30.5859 22.8711C31.6875 22.8711 32.4844 22.6992 32.9766 22.3555C33.4688 22.0039 33.7148 21.3477 33.7148 20.3867C33.7148 20.0586 33.6875 19.625 33.6328 19.0859C33.5859 18.5469 33.5078 18.0234 33.3984 17.5156C33.3594 17.2188 33.4297 16.9492 33.6094 16.707C33.7969 16.457 34.0391 16.3086 34.3359 16.2617C34.6328 16.2227 34.9023 16.2969 35.1445 16.4844C35.3867 16.6641 35.5352 16.9023 35.5898 17.1992C35.7227 17.7773 35.8164 18.3555 35.8711 18.9336C35.9258 19.5039 35.9531 19.9922 35.9531 20.3984C35.9531 21.9531 35.4961 23.1211 34.582 23.9023C33.6758 24.6836 32.3438 25.0742 30.5859 25.0742C30.2812 25.0742 30.0234 24.9648 29.8125 24.7461C29.5938 24.5352 29.4844 24.2773 29.4844 23.9727ZM30.9023 32.9141C30.7617 32.4609 30.9531 32.1055 31.4766 31.8477C32.0703 31.5977 32.5625 31.2891 32.9531 30.9219C33.3516 30.5625 33.5508 30.25 33.5508 29.9844C33.5508 29.6562 33.2461 29.4922 32.6367 29.4922C32.3398 29.4922 31.9922 29.5391 31.5938 29.6328C31.1953 29.7266 30.8086 29.8398 30.4336 29.9727C30.0586 30.1133 29.7539 30.2422 29.5195 30.3594C28.9961 30.5859 28.6016 30.5234 28.3359 30.1719C28.1953 29.9844 28.1406 29.7734 28.1719 29.5391C28.2031 29.3047 28.3164 29.1172 28.5117 28.9766C28.7773 28.7812 29.1367 28.5977 29.5898 28.4258C30.043 28.2539 30.5352 28.1133 31.0664 28.0039C31.6055 27.9023 32.1289 27.8516 32.6367 27.8516C33.332 27.8516 33.9297 28.0312 34.4297 28.3906C34.9297 28.75 35.1797 29.2812 35.1797 29.9844C35.1797 30.4219 35.0195 30.8789 34.6992 31.3555C34.3867 31.8398 33.9844 32.2734 33.4922 32.6562C33 33.0469 32.4883 33.3281 31.957 33.5C31.7383 33.5625 31.5234 33.5352 31.3125 33.418C31.1016 33.3008 30.9648 33.1328 30.9023 32.9141Z" fill="#1F2A37"/>
<path d="M57.5 24V29M50.5 24H64.5V22.24C64.4998 21.8679 64.3958 21.5033 64.1997 21.187C64.0036 20.8708 63.7232 20.6156 63.39 20.45L61.61 19.55C61.2768 19.3844 60.9964 19.1292 60.8003 18.813C60.6042 18.4967 60.5002 18.1321 60.5 17.76V13H61.5C62.0304 13 62.5391 12.7893 62.9142 12.4142C63.2893 12.0391 63.5 11.5304 63.5 11C63.5 10.4696 63.2893 9.96086 62.9142 9.58579C62.5391 9.21071 62.0304 9 61.5 9H53.5C52.9696 9 52.4609 9.21071 52.0858 9.58579C51.7107 9.96086 51.5 10.4696 51.5 11C51.5 11.5304 51.7107 12.0391 52.0858 12.4142C52.4609 12.7893 52.9696 13 53.5 13H54.5V17.76C54.4998 18.1321 54.3958 18.4967 54.1997 18.813C54.0036 19.1292 53.7232 19.3844 53.39 19.55L51.61 20.45C51.2768 20.6156 50.9964 20.8708 50.8003 21.187C50.6042 21.5033 50.5002 21.8679 50.5 22.24V24Z" stroke="#2B7FAD" stroke-width="2" stroke-linecap="round" stroke-linejoin="round"/>
</svg>
